<svg height="297mm" viewBox="0 0 744.09448819 1052.3622047" width="210mm" xmlns="http://www.w3.org/2000/svg" xmlns:xlink="http://www.w3.org/1999/xlink"><linearGradient id="a" gradientUnits="userSpaceOnUse" x1="226.359991" x2="571.82146" y1="722.3622" y2="322.3622"><stop offset="0" stop-color="#4e505d"/><stop offset="1" stop-color="#7a859c"/></linearGradient><path d="m190 322.36221h400v400h-400z" fill="none"/><path d="m390 322.36133c-100.41765.00008-181.82172 28.48871-181.82031 63.63086.002 35.14139 81.40483 63.62882 181.82031 63.6289 100.41625.0003 181.8206-28.48724 181.82227-63.6289-.072-1.29529-.25693-2.58952-.55469-3.88086-.28657-1.63918-.75437-3.27387-1.40235-4.90039-12.50747-31.41705-89.22492-54.8119-179.86523-54.84961zm-181.82031 99.80469v54.91992c.24476 28.03449 52.29018 51.77279 124.34765 60.17187-.3818-25.44162 6.88857-45.23187 20.23047-57.6875 6.17967-5.76916 13.11337-9.66438 20.25196-12.2207-45.1467-1.39134-85.85329-8.2924-117.52149-19.375-17.79869-6.22883-32.81199-13.67991-44.49414-23.3457-.95934-.79376-1.89315-1.62157-2.81445-2.46289zm363.64258 0c-.9213.84132-1.85511 1.66913-2.81446 2.46289-11.68215 9.66579-26.69545 17.11687-44.49414 23.3457-26.64755 9.3256-59.68922 15.70073-96.39453 18.31641 6.91607 1.50519 12.72158 3.26591 16.8125 4.64257l3.11719 1.04883c3.36372-1.47182 6.955-2.69485 10.75195-3.61719l.0117-2.29296 18.20898.29882c2.37309.0389 4.57749.35357 6.85157.55664l16.1875-4.01171c6.95026-1.72247 17.61632-3.71814 30.36328-3.56641l17.78515.21289v1.62109c7.73265 1.49088 15.77687 4.00592 23.61329 7.92969zm-171.44141 76.83398c-10.08618-.0167-18.08947 2.24938-23.05469 6.88477-4.96362 4.63389-9.74693 13.21033-8.70117 34.18554 7.00957.2875 14.12585.45091 21.35547.45117 2.45996.00001 4.89776-.0306 7.33398-.0644.79268-8.38464 2.72755-19.99751 7.39453-32.36133 1.06033-2.80901 2.28555-5.67915 3.69141-8.55859-2.68165-.29004-5.38313-.53311-8.01758-.53711zm76.05078 3.36719c-4.00645-.0657-6.98719.3449-9.5957.96679l5.11328 23.76172c2.06194 1.63687 3.95837 3.50319 5.66601 5.55274 14.84254-2.86326 28.4203-6.42853 40.36329-10.57227-8.8672-10.45761-20.94379-19.36203-41.51368-19.70898zm-17.29687 4.35937c-.66825.47318-1.35841.91287-1.99805 1.44532-1.80161 1.49965-3.45875 3.45523-4.99805 5.65039l6.9375-6.9375zm-250.95508 6.35742v55.08008c.2693 30.84559 63.23158 56.502 146.58398 62.23242-.89878-2.29595-1.78231-4.6183-2.65234-6.98437-5.84691-15.90079-10.44893-33.105-13.74805-47.82617-1.7111-7.63521-3.06272-14.23644-4.03125-19.96094-29.70607-3.19452-56.53097-8.93459-78.86328-16.75-17.79869-6.22883-32.81198-13.67991-44.49414-23.3457-.95261-.78819-1.87991-1.6101-2.79492-2.44532zm362.92187.61133c-.006.005-.0117.0104-.0176.0156.0987.0712.28353.29454.59571.69336-.19054-.24339-.38588-.47196-.57813-.70899zm-.0898.082c-.66533.59556-1.3367 1.18376-2.02344 1.75196-.31856.26357-.64915.51899-.97266.77929 1.16831 2.32847 2.18251 4.55464 3.05079 6.64063.28641.68809.3838 1.24134.64257 1.9043.0211-.37488.0696-.80511.11329-1.22461v-5.33985c-.29191-2.5984-.83342-4.20277-.81055-4.51172zm-83.67383 84.83008c-1.76404 7.8617-4.01805 13.31837-5.86523 17.4375 1.96772 1.79392 3.67843 3.76275 5.14453 5.81446 10.97734-2.41594 21.16359-5.22648 30.39453-8.38282-1.48889-2.66955-3.47187-6.21424-5.59375-10.28515-31.22509-57.6297-8.81549-75.71067-24.08008-4.58399zm-115.8184-40.39645c.5791 3.01004 1.2365 6.2171 1.97266 9.50195 3.03629 13.5484 7.36927 29.57724 12.40625 43.27539 3.01767 8.20663 6.56217 15.43117 9.55078 20.5625 2.45814-.0255 4.90323-.0657 7.33594-.125 1.22072-1.41362 2.41575-2.78692 3.58398-4.11719-8.11133-11.61406-12.15943-26.32177-10.00195-41.74609.97882-6.99762 1.13558-13.83722 1.01172-19.34961-.0692-3.07922-.24028-5.43383-.37891-7.74805-2.33343.0294-4.66532.0586-7.01953.0586-6.22941 0-12.38409-.10872-18.46094-.3125zm69.42383 33.58594c-.16925 1.20992-.19195 2.33096-.12305 3.38671l.39258-1.06054h.94531c4.12443-15.56542 1.2234-20.04293-1.21484-2.32617zm-232.76367 12.36523v54.39258c-.007.0456-.0131.0911-.0195.13672.002 35.14138 81.40486 63.62882 181.82031 63.6289 25.78642-.00002 50.30107-1.88987 72.52344-5.27734-.51539-1.19835-.95338-2.30567-1.32422-3.23242l-.002-.002v-.002c-1.3467-3.36757-1.3025-4.17995-1.6914-6.15039s-.75052-4.24287-1.04688-6.82031c-.55889-4.86085-.95277-10.54491-1.22656-16.92188-.16525-3.84899-.19648-8.28791-.27148-12.54687-2.16141.74-4.30868 1.38612-6.31055 1.72851-8.31184 1.42163-14.87267.43571-19.83203-.625h-.92578l-2.15039-.53711c-3.16715-.79166-5.12917-1.69593-7.17774-2.72265l-2.80664-1.40625c-5.09018 3.98371-11.12177 6.91122-18 7.20312-10.27909.43624-18.70702-4.76321-24.35351-10.25-4.82175-4.68536-8.6977-10.01283-12.01758-15.8125-41.30193-2.01933-78.49691-8.70283-107.89844-18.99219-17.79869-6.22883-32.81198-13.67991-44.49414-23.3457-.95261-.78818-1.87991-1.61008-2.79492-2.44531zm309.69922 28.00391c-7.83406 2.50338-16.1875 4.7487-24.94922 6.75.0906.8795.13155 1.76379.0976 2.65234l.006-.18164c-.40939 14.63335-.35066 29.40308.14649 40.98242.24841 5.78579.61628 10.81238 1.02343 14.35352.18669 1.62354.42109 3.04847.60157 3.96289.032.16217.0706.23895.11719.40039.87448 1.8571 1.85423 3.42053 1.84374 3.59765.5379-.15301 1.49473-.39167 3.29493-.77734 6.75805-1.44846 7.95835-2.73055 8.08984-2.86719.15318-.15917 1.08701-.98108 2.13477-7.05664v-.002-.002c1.71553-9.93739 6.05603-46.37715 6.41211-50.75196-.0399-3.69589.30136-7.41996 1.18164-11.06054zm-60.89453 13.16015c-.055.007-.10904.0161-.16407.0234l.16016.36328c.003-.13047.002-.2579.004-.38672zm11.51171 6.44336-.54101.0469c-.16491.21977-.32371.40824-.4961.63476h.41211zm103.17774 9.18555c-5.85597 1.48176-11.73648 1.98546-18.03321 2.05469-1.04396.0115-1.94745-.0744-2.91601-.0898-1.06555 9.21329-2.32014 19.35423-3.51367 27.74024 14.61287-8.78295 23.3826-18.90146 24.46289-29.70508zm-74.99219 43.70703c.0164.0138.0181.0273.0195.041.0158-.005.0281-.009.0449-.0137-.014.00045-.0246.005-.0625-.0273z" fill="url(#a)"/><path d="m190 322.36218h400.00146v.00001 399.99997h-400.00146c-.00001 0-.00001 0-.00001 0v-399.99997c0-.00001 0-.00001.00001-.00001z" fill="none"/><path d="m530.20867 477.34875c-10.70477-.12742-19.95134 1.58467-25.81765 3.0385 16.57084 6.10354 28.78081 16.90112 37.13773 27.58236 6.22308 7.95393 10.3991 15.84107 12.91939 21.89591 1.26014 3.02743 2.10395 5.57705 2.59337 7.59012.24471 1.00654.41291 1.84129.46449 2.79923.0257.4772.063.96375-.14428 1.8298.34682 10.06366-2.16984 16.75378-2.46845 26.11499a4.5045525 4.5045525 0 0 0 0 .002c-.21876 6.73187 1.52765 14.78029 1.96527 23.65361.40514 8.21478-.53003 17.32177-5.77793 26.2557 1.25984 1.53759 2.51224 3.00503 3.44494 4.79263 30.28475-47.32884 42.6625-105.1146 31.32815-119.59445-15.95251-20.37755-37.7344-25.74695-55.64503-25.96016zm-129.79732 3.65079c-25.53298-.0423-52.1976 11.31964-49.76331 59.98901.97479 19.48997 27.94073 147.46871 60.10515 108.81275 8.25679-9.92766 16.1009-18.53055 20.16817-22.91988-11.66635-7.91235-18.98454-22.6836-16.72676-38.82502 1.16175-8.30512 1.31896-16.08882 1.18057-22.24779-.13549-6.02978-.56594-10.09314-.56829-12.69945a4.5045525 4.5045525 0 0 1 -.002-.0387s.00004-.0424 0-.0439c.00008-.031-.003-.0751-.003-.10557.00005-.009.002-.0158.002-.0246-.023-.93284-.38997-19.53963 6.7456-38.44322 3.56723-9.45029 9.06546-19.06878 17.64165-26.45984-7.8033-2.62595-23.05112-6.96758-38.77926-6.99368zm76.31463 3.37103c-13.92618-.22832-23.71707 3.81762-31.10471 9.96709-7.38763 6.14947-12.36196 14.59975-15.64472 23.29641-3.58291 9.49188-5.08481 19.08502-5.71634 25.86165 3.96306-2.10927 8.93858-4.17054 14.27591-5.40141 2.88303-.66487 5.88542-1.1067 8.88679-1.10492 3.0014.002 6.00209.44684 8.87801 1.55709 5.75186 2.22051 10.53227 7.54592 12.23146 15.40016 8.00312 37.00266-2.57417 51.14559-6.35325 61.31034h-.002c-1.43857 3.87634-2.67559 7.34447-3.48012 10.28555.15541-.0212.31162-.0498.46624-.0637 2.91186-.25426 5.1724.73808 6.44474 1.26496a4.5045525 4.5045525 0 0 0 .002 0c4.11326 1.70471 6.87042 5.21939 8.35899 9.23522.39326 1.06095.68721 2.1932.86035 3.35869a4.5045525 4.5045525 0 0 1 .21113 1.54478c-.42003 15.01367-.36561 30.09651.15659 42.25943.2611 6.08138.64124 11.43667 1.12426 15.63766.48303 4.20099 1.19112 7.39722 1.56941 8.34317 1.44205 3.60371 3.52519 8.21487 7.19776 11.3077 3.67258 3.09251 8.87095 5.19023 18.74481 3.07552 8.6239-1.84837 13.83498-4.39962 17.28625-7.98601s5.54681-8.60911 6.90394-16.47865c2.03015-11.75985 6.13051-46.02224 6.64708-52.6541-.23239-4.98947.5132-8.88361 2.16055-11.90245 1.6936-3.10353 4.33263-5.00883 6.58374-6.0224.93151-.41948 1.23853-.43002 2.00045-.66687-.6146-.91108-.78021-1.29544-2.11481-2.98046-2.31511-2.92279-5.29779-6.94458-7.63234-12.60264-.20586-.49886-1.36776-2.69353-2.87489-5.39613-1.50713-2.70259-3.4173-6.11404-5.41371-9.94423-3.99285-7.66038-8.35322-16.95587-10.62688-26.06926-2.27364-9.11338-2.6624-18.69665 3.33058-25.55197 5.14815-5.88895 14.16394-8.14888 27.03869-7.04998-.34441-.99756-.47923-1.6447-.99055-2.87313-2.22633-5.34862-6.0561-12.59593-11.69835-19.80749-11.28452-14.42312-29.48402-28.68912-57.70705-29.15174zm65.58395 60.37609c.34797.16389.69933.35239 1.06268.60349 1.00241.69269 2.21724 2.03256 2.47726 3.89533l-8.92199.61932 8.92199-.61755c.0372.26701-.0373.39373-.0281.62635.0603 1.52635-.33749 2.48516-.76535 3.31122-.49305.95193-1.11371 1.78959-1.87904 2.59338-1.53067 1.60756-3.6897 3.14915-6.64884 3.55928-2.95471.4106-5.50518-.55908-7.32972-1.7946-.91265-.618-1.6752-1.31041-2.32418-2.11657-.64899-.80616-1.29117-1.61324-1.5307-3.31298l-.002-.0123-.002-.0105c-.0157-.11503-.015-.22654-.0229-.33958-1.46498 3.57115-1.36256 8.70385.17595 14.87057 1.95878 7.85131 6.03074 16.71328 9.87383 24.08641 1.92154 3.68652 3.78005 7.01066 5.29232 9.72248 1.51227 2.71183 2.62048 4.61092 3.33585 6.34445.42004 1.01815.86492 1.9556 1.32133 2.84324 2.42952-5.72552 2.83702-11.38398 2.54411-17.32316-.38824-7.872-2.2443-16.01858-1.97231-24.38905.30297-9.49009 2.2192-15.60799 2.4667-22.71931-2.19951-.25464-4.22222-.40439-6.04534-.44338zm-94.93276 1.29493c-2.13595-.00082-4.46253.2873-6.81773.83045-4.71042 1.08629-9.46482 3.11103-12.86485 5.00378-1.68737.93934-3.04359 1.85492-3.8232 2.48604.0716 1.69225.3788 5.47401.50846 11.24441.14559 6.47916-.0103 14.74009-1.26325 23.69754-2.62078 18.73653 10.77771 34.03613 26.59708 34.43005.99533-3.80463 2.53672-7.61767 4.0185-11.61039a4.5045525 4.5045525 0 0 1 .002 0c4.66366-12.5462 13.55427-21.13579 6.03128-56.09016-.30956.82019-.73392 1.38745-1.17177 1.93184-.64889.80679-1.41174 1.50014-2.32419 2.11833-1.82413 1.23583-4.37512 2.20553-7.32971 1.79459-2.95887-.41017-5.11761-1.95174-6.64884-3.55928-.76561-.80377-1.38563-1.64048-1.87905-2.59338-.49159-.94938-1.07014-1.9207-.79174-3.92876l-.003.003c.00081-.005.002-.007.003-.0105.00063-.005-.00063-.007 0-.0105l.54718-3.87423h1.91249c.005-.002.008-.01.0123-.0123 1.00327-.69412 1.93561-1.00099 2.86433-1.22102.92871-.22004 1.87401-.3342 2.84497-.35717v-.002c.97038-.023 1.96607.044 2.9998.18826h.002c.80043.11143 1.55833.27486 2.29429.46976-.014-.006-.0265-.0122-.0404-.0176-1.59694-.6165-3.54345-.90697-5.6794-.90787zm103.48351 87.4324c-1.52301.50221-2.79016.7741-3.74755 1.20518-1.05537.47518-1.72246.92741-2.3752 2.12361-.60535 1.1093-1.13286 3.25929-1.03102 6.78777.21337.13011.45004.30122 1.14537.51733 1.82635.56747 5.02528.94178 8.59123.90258 7.13122-.0784 15.98682-1.7787 20.55348-3.89717 3.35283-1.5567 6.22409-3.46249 8.47511-5.20958-14.10441 2.60606-22.62578 1.87042-27.936-.32727-1.46843-.60774-2.67263-1.33423-3.67542-2.10245zm-90.91425.97821c-.40746.0359-1.09516.10862-2.68663 1.88781h-.003a4.5045525 4.5045525 0 0 1 -.002.008c-3.90983 4.36646-5.26092 7.15245-8.65279 9.85455-3.3919 2.70203-7.74746 4.1007-16.21125 5.84297-1.65087.34034-2.79996.72274-3.78098 1.07328 1.10014.55138 2.40202 1.08218 3.47835 1.35122a4.5045525 4.5045525 0 0 0 .002 0c3.58882.89784 9.43786 1.92105 15.50573.88322s12.32827-3.89814 17.74194-11.47668a4.5045525 4.5045525 0 0 0 .002 0c.78096-1.09305.90866-2.81327.18475-4.76626-.72392-1.95299-2.38106-3.63752-3.36401-4.04491-1.18824-.49192-1.80574-.64955-2.21335-.61403z" fill="#99b000"/></svg>