<svg fill="none" height="24" viewBox="0 0 24 24" width="24" xmlns="http://www.w3.org/2000/svg"><g fill="#0f1689"><path d="m7.43922 6.82455.02205.02085c-.07026.07147-.14018.14156-.20949.21103-.15372.15407-.30444.30515-.44924.46171-.28173.3046-.53062.64579-.55534.74211l.38987-.00018c.30346-.00026.60728-.00053.91073.00158.02945.00113.05876-.00463.08559-.01684.02683-.0122.05044-.03051.06894-.05346.20842-.22965.43555-.44161.67904-.63367.94299-.75439 2.09613-1.19882 3.30153-1.27242.4042-.02725.8102-.01157 1.2111.04677 1.3559.19359 2.6025.85167 3.5272 1.86193.0144.02038.0334.03711.0554.04884.022.01174.0465.01817.0715.01876.2836-.00172.5672-.00169.8508-.00167.1402.00002.2804.00003.4206-.00017.0228-.0022.0454-.00618.0676-.0119-.3061-.45118-.663-.86567-1.0638-1.2353l.0053-.00488.0132-.0125c.0096-.00914.017-.01618.0247-.02223.4098-.31902.7322-.71435 1.0038-1.15322.1929-.30518.3376-.63825.4292-.9875.0343-.13521.0448-.27538.0309-.41419-.0185-.1883-.1237-.34597-.3742-.31727-.0502.00585-.0995.01718-.1472.0338-.173.06222-.3333.15552-.4729.27532-.5978.49483-1.0522 1.14069-1.316 1.87049-.0056.01538-.0131.03006-.0199.04341l-.0036.00706-.0047.00962c-.0777-.04412-.1542-.0889-.2303-.13345-.1723-.10077-.3424-.20031-.5184-.28809-.2569-.12925-.5209-.2437-.7908-.34277-.2678-.09557-.5408-.17574-.8177-.24013-.1927-.04579-.3883-.07939-.5852-.11322-.0866-.01489-.1736-.02983-.2607-.04586.0746-.2598.1214-.52677.1397-.79644.0368-.44182.0082-.88668-.0849-1.32014-.0409-.20498-.1118-.40281-.2105-.58706-.053-.10864-.1336-.20149-.2336-.26928-.0474-.03251-.1036-.04972-.161-.04932-.0575.0004-.1134.0184-.1603.05156-.0471.03173-.0897.06969-.1266.11286-.0976.12087-.1719.25883-.219.40686-.0975.28104-.1573.57378-.1778.87055-.0466.49523-.0107.99476.1061 1.47826.0044.01734.0077.03496.0115.05507l.0064.03293c-1.145.06312-2.25741.40446-3.24079.99442-.00505-.00459-.00906-.00793-.01225-.01059-.00529-.00441-.00834-.00695-.01012-.01016-.00584-.01117-.01104-.02267-.01558-.03444-.20773-.49389-.50197-.94672-.86888-1.33718-.20657-.22409-.43121-.42842-.70682-.56663-.07288-.03781-.14978-.06728-.22926-.08786-.25197-.06107-.42453.06923-.44233.32706-.00079.01141-.00108.02284-.00137.03428l-.00072.02261c-.00885.19974.041.38889.10703.57435.23592.66262.62649 1.22323 1.13116 1.70808.01686.0162.03397.03236.05035.04785z"/><path d="m16.8223 17.003c.3561-.3283.6774-.6924.959-1.0865l-.007-.0237h-.1014c-.106 0-.2121.0002-.3181.0004-.2861.0006-.5722.0012-.8582-.0024-.0447-.0022-.0893.0054-.1307.0223s-.0786.0426-.109.0755c-1.3579 1.326-2.9792 1.8974-4.864 1.7141-.6937-.0714-1.368-.2718-1.98816-.5909-.58616-.2945-1.11889-.685-1.57611-1.1554-.0183-.0212-.0411-.038-.06672-.0493-.02563-.0112-.05344-.0166-.08142-.0158-.29333.002-.58668.0019-.88003.0018-.12722-.0001-.25445-.0001-.38168 0-.01727 0-.03454.0017-.05547.0038-.01099.0011-.02308.0023-.03661.0034.32868.4612.71094.8817 1.13876 1.2527-.00399.0092-.00888.018-.01462.0262-.01126.0111-.02283.0218-.03441.0325l-.02082.0195c-.45405.4248-.81512.9391-1.06045 1.5105-.08279.1814-.14075.3731-.1723.57-.01924.1413-.02927.2837.02737.4207.01742.0461.04649.0868.08437.1183.03789.0315.08328.0526.13176.0613.08779.0148.17797.0051.26061-.0281.17633-.0624.33967-.1568.48188-.2783.53721-.4468.96081-1.0146 1.23605-1.6568.00441-.0101.00888-.02.01346-.0302.00462-.0103.00937-.0208.01429-.0316l.01631-.0361c.98213.5919 2.09384.9351 3.23874.9998l.0026.0098.0018.006c.002.0066.0031.0103.0024.0137-.0041.0216-.0092.0431-.0148.0644-.0647.2512-.1034.5084-.1154.7674-.0221.3538-.0038.709.0543 1.0586.0453.2562.1086.5074.2317.7384.0424.0812.095.1567.1563.2248.1551.1687.3452.1673.5044.0029.0367-.035.0682-.075.0936-.1188.0627-.1131.1183-.2299.1666-.3498.1013-.2898.1609-.5925.1769-.8991.0426-.4891.0024-.982-.1188-1.4577-.0047-.0173-.0079-.035-.0115-.0548-.0019-.0099-.0038-.0204-.006-.0316.3823-.0427.7608-.1148 1.1321-.2155.3655-.1016.7224-.2317 1.0675-.389.3468-.1619.6812-.3492 1.0005-.5603l.0123.0317c.0066.0169.0117.0301.0166.0434.2627.7301.7179 1.3757 1.3174 1.8683.1139.0903.237.1683.3673.2326.0853.0409.1766.068.2705.0802.0696.0123.1412-.0013.2014-.0384.0601-.037.1046-.0949.1249-.1625.0162-.0478.0263-.0974.0299-.1477.012-.1963-.018-.393-.088-.5768-.2631-.7538-.7294-1.4203-1.3474-1.9258z"/><path d="m16.0295 9.91046c.0345 0 .0686.00073.1023.00144.0754.0016.1493.00317.2223-.00344.1198-.01084.2056.032.293.11254.38.3501.7629.697 1.1459 1.0439l.0017.0015c.1249.1132.2499.2264.3747.3397.0169.0153.034.0304.0532.0472l.0312.0276.0291-.0248c.0199-.0168.039-.033.0575-.0498.5237-.4768 1.047-.9539 1.57-1.4315.0217-.02236.0479-.0398.0769-.05116.029-.01135.0601-.01636.0912-.01467.0905.00366.1811.00291.2741.00215.0393-.00033.0793-.00066.1195-.00066v4.21474c-.0689.0202-.995.0242-1.1055.0025v-2.1345l-.0215-.0102-1.0895.9936-1.0983-.9894-.021.0077c-.0006.1209-.0005.2418-.0005.3627l.0001.1718c-.0001.177-.0001.3541 0 .5311v1.0749h-1.0972c-.0205-.0709-.0301-3.9865-.0092-4.22494z"/><path d="m6.99593 9.91528h-1.09053v.75072c.00015.1265.00013.253-.00003.3795-.00011.0848-.00038.1696-.00064.2535l-.00032.1095c-.11796.0218-1.27617.0176-1.35488-.0052v-1.48753h-1.10153v4.21103c.09255.022 1.02352.0197 1.1059-.0049v-1.5897h1.3515l-.00011.2482c-.00012.1859-.00024.3698.00028.5534.00024.0867-.00003.1734-.00029.2601-.00056.1805-.00112.3613.00294.5424h1.0915c.02254-.1022.01824-4.15092-.00379-4.22102z"/><path d="m8.30298 14.1347v-4.20692c.06468-.02117 2.46182-.02944 2.61852-.00819v.89661c-.0111.0008-.0222.0018-.0335.0028-.0245.0022-.0494.0045-.0742.0045-.4269.0006-.85384.0007-1.28074.0004h-.1187v.6973h1.33384v.9277h-1.32191c-.02214.0794-.02822.6327-.01025.7858.01055.0008.02135.0017.0323.0026.02412.0021.04901.0042.07391.0043.4269.0005.85375.0006 1.28065.0003h.1188v.8928z"/><path d="m12.1753 9.91565c-.0199.07662-.024 4.10775-.0039 4.22065h2.6173v-1.1038h-.1163c-.4301.0002-.8601.0001-1.2902-.0003-.0245 0-.0491-.0016-.0766-.0033-.0137-.0009-.0282-.0019-.0439-.0027v-3.11055z"/></g></svg>